<?xml version="1.0" encoding="UTF-8"?>
<svg id="Layer_1" data-name="Layer 1" xmlns="http://www.w3.org/2000/svg" version="1.1" viewBox="0 0 595.28 841.89">
  <defs>
    <style>
      .cls-1 {
        fill: #00000;
        stroke-width: 0px;
      }
    </style>
  </defs>
  <path class="cls-1" d="M116.95,454.37c1.91.23,3.82.41,5.72.68,5.8.85,11.31,2.46,15.94,6.25,3.99,3.27,6.08,7.55,6.67,12.62.85,7.28-1.95,13.32-6.46,18.75-4.13,4.98-9.16,8.96-14.5,12.57-.49.33-.98.66-1.66,1.11,2.65,2.77,5.24,5.49,8,8.38h-25.66c4.27-2.52,8.27-4.88,12.37-7.3-1.59-9.57-4.59-18.44-12.66-24.71-4.03-3.14-8.74-4.64-13.76-5.24-10.42-1.24-19.92,1.74-28.95,6.53-10.37,5.5-19.44,12.65-27.04,21.62-.27.32-.57.62-.85.93l-.25-.16c.39-.82.73-1.66,1.17-2.46,3.36-6.19,7.55-11.78,12.31-16.96,11.64-12.66,25.36-22.26,41.57-28.21,6.36-2.33,12.92-3.87,19.72-4.21.32-.02.63-.14.95-.22,2.45,0,4.91,0,7.36,0Z"/>
</svg>